<?xml version="1.0" encoding="UTF-8" standalone="no"?>
<!-- Created with Inkscape (http://www.inkscape.org/) -->

<svg
   xmlns:dc="http://purl.org/dc/elements/1.1/"
   xmlns:cc="http://creativecommons.org/ns#"
   xmlns:rdf="http://www.w3.org/1999/02/22-rdf-syntax-ns#"
   xmlns:svg="http://www.w3.org/2000/svg"
   xmlns="http://www.w3.org/2000/svg"
   xmlns:sodipodi="http://sodipodi.sourceforge.net/DTD/sodipodi-0.dtd"
   xmlns:inkscape="http://www.inkscape.org/namespaces/inkscape"
   width="5.6444445mm"
   height="9.847393mm"
   viewBox="0 0 20 34.892337"
   id="svg3455"
   version="1.1"
   inkscape:version="0.92.3 (unknown)"
   sodipodi:docname="map-pin-darkred.svg">
  <defs
     id="defs3457" />
  <sodipodi:namedview
     id="base"
     pagecolor="#ffffff"
     bordercolor="#666666"
     borderopacity="1.0"
     inkscape:pageopacity="0.0"
     inkscape:pageshadow="2"
     inkscape:zoom="12.181359"
     inkscape:cx="8.3525886"
     inkscape:cy="14.715224"
     inkscape:document-units="px"
     inkscape:current-layer="g3477"
     showgrid="false"
     inkscape:window-width="1920"
     inkscape:window-height="1149"
     inkscape:window-x="0"
     inkscape:window-y="0"
     inkscape:window-maximized="1"
     fit-margin-top="0"
     fit-margin-left="0"
     fit-margin-right="0"
     fit-margin-bottom="0" />
  <metadata
     id="metadata3460">
    <rdf:RDF>
      <cc:Work
         rdf:about="">
        <dc:format>image/svg+xml</dc:format>
        <dc:type
           rdf:resource="http://purl.org/dc/dcmitype/StillImage" />
        <dc:title></dc:title>
      </cc:Work>
    </rdf:RDF>
  </metadata>
  <g
     inkscape:label="Layer 1"
     inkscape:groupmode="layer"
     id="layer1"
     transform="translate(-814.59595,-274.38623)">
    <g
       id="g3477"
       transform="matrix(1.1855854,0,0,1.1855854,-151.17715,-57.3976)">
      <path
         sodipodi:nodetypes="sscccccsscs"
         inkscape:connector-curvature="0"
         id="path4337-3"
         d="m 817.11249,282.97118 c -1.25816,1.34277 -2.04623,3.29881 -2.01563,5.13867 0.0639,3.84476 1.79693,5.3002 4.56836,10.59179 0.99832,2.32851 2.04027,4.79237 3.03125,8.87305 0.13772,0.60193 0.27203,1.16104 0.33416,1.20948 0.0621,0.0485 0.19644,-0.51262 0.33416,-1.11455 0.99098,-4.08068 2.03293,-6.54258 3.03125,-8.87109 2.77143,-5.29159 4.50444,-6.74704 4.56836,-10.5918 0.0306,-1.83986 -0.75942,-3.79785 -2.01758,-5.14062 -1.43724,-1.53389 -3.60504,-2.66908 -5.91619,-2.71655 -2.31115,-0.0475 -4.4809,1.08773 -5.91814,2.62162 z"
         style="display:inline;opacity:1;fill:#8b0000;fill-opacity:1;stroke:#000000;stroke-width:1;stroke-miterlimit:4;stroke-dasharray:none;stroke-opacity:0" />
      <circle
         r="3.0355"
         cy="288.25278"
         cx="823.03064"
         id="path3049"
         style="display:inline;opacity:1;fill:#ffffff;fill-opacity:1;stroke-width:0" />
    </g>
    <path
       style="opacity:0;fill:none;fill-opacity:1;stroke-width:0.08209265"
       d="m 10.618346,33.863342 c 0,-0.457003 -1.3213315,-4.634151 -2.1366646,-6.754675 C 7.2616324,23.935555 6.8022674,23.006419 4.5041923,19.063587 2.3846952,15.427144 1.7651214,14.04462 1.4717691,12.297001 1.3072379,11.316821 1.3044618,9.5667473 1.4662269,8.8030605 2.0865128,5.8747122 3.863867,3.6273545 6.6350231,2.2674275 8.0685471,1.5639348 8.9440018,1.3532136 10.45416,1.348164 c 1.990262,-0.00665 3.669484,0.5140877 5.380243,1.6684638 2.180786,1.4715387 3.542754,3.4899427 4.070007,6.0316568 0.14144,0.6818426 0.117014,2.4678034 -0.0466,3.4068444 -0.304851,1.749694 -0.87016,3.01219 -2.959074,6.608458 -0.734333,1.264227 -1.617035,2.815778 -1.96156,3.447892 -1.246969,2.287868 -2.785596,6.289913 -3.832725,9.969112 -0.395736,1.390459 -0.486109,1.647528 -0.486109,1.382751 z M 11.44859,14.424919 C 13.40465,14.05986 14.806902,12.063621 14.50001,10.080931 14.301805,8.8004144 13.489519,7.6908972 12.345163,7.1375795 11.790004,6.8691501 11.643679,6.8350302 10.917712,6.8047255 9.9268029,6.7633611 9.2628206,6.9214633 8.5835001,7.3605293 7.3010779,8.1893988 6.6096237,9.7082881 6.8410308,11.188141 c 0.3482082,2.226798 2.378189,3.652846 4.6075592,3.236778 z"
       id="path917"
       inkscape:connector-curvature="0"
       transform="matrix(0.93749997,0,0,0.93749997,814.59595,274.38623)" />
    <path
       style="opacity:0;fill:none;fill-opacity:1;stroke-width:0.08209265"
       d="M 10.641928,33.836438 C 10.615894,33.74824 10.427759,33.08046 10.223851,32.352482 9.7625757,30.70567 9.1048178,28.729034 8.4652269,27.067621 7.2365169,23.875899 6.7667539,22.934431 4.2666585,18.653124 1.9795353,14.736523 1.4475621,13.329306 1.3313994,10.88855 1.1581268,7.2478264 3.1870239,3.9291992 6.5985644,2.2731506 c 2.6936164,-1.30754992 5.2798426,-1.28113679 8.0505306,0.08222 2.62677,1.2925404 4.391489,3.3855411 5.109776,6.0603234 0.1884,0.7015696 0.214482,0.9586273 0.218278,2.151305 0.0046,1.448627 -0.09009,2.095498 -0.497241,3.396562 -0.259703,0.829887 -0.973413,2.329485 -1.724004,3.622359 -1.877376,3.233731 -2.845816,4.941933 -3.21207,5.66567 -1.10403,2.181617 -2.695654,6.489733 -3.53144,9.558689 -0.20211,0.742139 -0.340858,1.126459 -0.370466,1.026159 z m 0.966328,-19.454692 c 1.36363,-0.355181 2.453915,-1.411443 2.790292,-2.703221 0.283713,-1.089535 0.09375,-2.2719497 -0.516764,-3.2165303 -0.38949,-0.6026161 -0.868611,-1.0054191 -1.618035,-1.3602996 -0.549817,-0.2603594 -0.606307,-0.269912 -1.596148,-0.269912 -0.9898409,0 -1.0463305,0.00955 -1.596148,0.269912 C 8.3220298,7.4565756 7.8429081,7.8593786 7.4534184,8.4619947 6.8429065,9.4065753 6.6529412,10.58899 6.9366547,11.678525 c 0.5135605,1.97221 2.6754083,3.223163 4.6716013,2.703221 z"
       id="path919"
       inkscape:connector-curvature="0"
       transform="matrix(0.93749997,0,0,0.93749997,814.59595,274.38623)" />
  </g>
</svg>
