<?xml version="1.0" standalone="no"?>
<!DOCTYPE svg PUBLIC "-//W3C//DTD SVG 20010904//EN"
 "http://www.w3.org/TR/2001/REC-SVG-20010904/DTD/svg10.dtd">
<svg version="1.0" xmlns="http://www.w3.org/2000/svg"
 width="256.000000pt" height="256.000000pt" viewBox="0 0 256.000000 256.000000"
 preserveAspectRatio="xMidYMid meet">

<g transform="translate(0.000000,256.000000) scale(0.100000,-0.100000)"
fill="#000000" stroke="none">
<path d="M380 2207 c-26 -13 -31 -45 -15 -94 6 -18 2 -24 -18 -32 -19 -7 -24
-15 -20 -30 7 -28 34 -27 61 2 25 26 27 45 10 82 -12 26 -6 36 25 48 9 3 -2
37 -12 37 -3 0 -17 -6 -31 -13z"/>
<path d="M631 2211 c-7 -5 -11 -13 -8 -18 3 -4 -1 -19 -9 -33 -8 -16 -14 -20
-15 -10 -1 8 -2 21 -3 28 -2 20 -27 32 -69 32 -77 0 -126 -94 -81 -158 20 -29
72 -29 109 0 l27 21 -6 -21 c-5 -15 -3 -22 6 -22 23 0 35 14 49 55 l14 40 3
-42 c3 -37 6 -43 25 -43 17 0 29 14 51 55 16 31 30 54 32 52 2 -1 -4 -27 -12
-56 -18 -59 -14 -69 19 -54 19 9 26 24 37 81 10 53 16 67 25 59 9 -8 8 -22 -5
-57 -36 -95 -38 -90 19 -90 40 0 52 4 61 20 10 18 8 20 -20 20 -20 0 -30 5
-30 15 0 10 10 15 29 15 20 0 30 6 34 20 4 16 0 20 -20 20 -15 0 -23 5 -21 13
5 13 108 23 108 10 0 -4 -9 -32 -20 -61 -25 -66 -25 -74 1 -70 17 2 26 17 42
70 15 53 24 68 41 70 11 2 22 11 24 21 3 17 -5 18 -122 15 -69 -2 -126 0 -126
5 0 22 -48 2 -86 -36 l-43 -43 -10 43 c-11 43 -23 51 -50 34z m-77 -67 c10
-38 -18 -76 -52 -72 -22 2 -28 9 -30 34 -6 59 69 93 82 38z"/>
<path d="M1269 2213 l-86 -4 -16 -34 c-11 -23 -24 -35 -37 -35 -24 0 -24 3 -5
40 15 29 15 30 -5 30 -16 0 -28 -15 -50 -62 -41 -91 -45 -118 -20 -118 13 0
25 11 34 35 9 20 22 35 31 35 16 0 15 -10 -3 -59 -4 -10 1 -11 19 -6 26 8 39
22 39 42 0 7 7 31 16 53 11 28 22 40 36 40 12 0 18 -5 14 -12 -2 -7 -10 -30
-17 -51 -7 -21 -21 -43 -31 -48 -10 -5 -18 -17 -18 -26 0 -12 7 -14 31 -9 17
3 49 6 70 6 35 0 40 3 58 43 l19 42 1 -42 c1 -64 40 -57 65 12 12 33 15 36 15
15 2 -48 27 -70 81 -70 55 0 55 1 65 53 6 32 5 37 -12 37 -12 0 -25 -11 -31
-26 -9 -18 -19 -24 -35 -22 -44 6 -29 98 16 98 13 0 28 -5 33 -10 7 -7 17 -5
30 5 19 15 19 15 0 30 -26 19 -76 19 -104 0 -20 -14 -21 -14 -16 0 4 10 0 15
-13 15 -13 0 -26 -14 -40 -42 l-20 -43 -7 48 c-4 26 -10 46 -14 45 -4 -1 -46
-4 -93 -5z m45 -60 c-9 -21 -20 -48 -25 -60 -5 -13 -15 -23 -24 -23 -18 0 -18
-4 1 53 9 26 22 47 30 47 8 0 14 5 14 10 0 6 5 10 10 10 6 0 3 -16 -6 -37z"/>
<path d="M1728 2212 c-16 -3 -18 -16 -18 -92 0 -81 2 -89 18 -83 9 3 27 17 39
32 l23 26 0 -32 c0 -27 3 -30 21 -26 12 3 33 26 48 51 51 87 62 93 35 19 -26
-73 -29 -91 -15 -82 5 3 39 6 75 6 l66 1 19 42 19 41 1 -42 c1 -44 11 -52 40
-34 8 5 22 33 30 62 15 48 42 81 56 68 3 -3 -4 -32 -15 -64 -25 -73 -25 -77 1
-73 17 2 26 17 42 71 15 51 24 67 38 67 10 0 23 9 29 20 10 19 8 20 -68 20
l-78 0 -21 -42 -20 -43 -7 48 c-6 38 -11 47 -23 43 -8 -3 -50 -6 -94 -6 l-79
0 -27 -42 -28 -42 -3 48 c-3 38 -6 46 -18 42 -9 -3 -18 -6 -20 -6 -2 0 -4 -7
-4 -15 0 -9 -8 -28 -17 -43 l-18 -26 -5 44 c-4 37 -8 45 -22 42z m300 -49
c-40 -102 -47 -117 -48 -105 0 6 -11 12 -25 12 -16 0 -25 6 -25 15 0 10 10 15
29 15 20 0 30 6 34 20 4 16 0 20 -20 20 -35 0 -24 24 13 28 16 2 33 8 39 13
15 14 15 11 3 -18z"/>
<path d="M478 1779 l-31 -30 -21 20 c-62 58 -226 -26 -226 -115 0 -22 51 -74
73 -74 7 0 -13 -14 -43 -31 -62 -34 -85 -55 -94 -86 -16 -53 96 -108 214 -106
42 1 109 14 187 37 109 31 129 34 173 26 28 -5 58 -14 68 -19 47 -28 47 -27
-8 -89 -58 -66 -84 -82 -135 -82 -34 0 -85 -18 -85 -30 0 -14 25 -30 47 -30
20 0 22 -3 13 -19 -28 -53 4 -67 60 -26 30 22 34 23 45 9 6 -9 20 -14 31 -12
15 3 19 12 19 44 0 23 6 48 14 57 40 49 155 84 233 71 l38 -6 -15 -28 c-8 -16
-15 -35 -15 -43 0 -13 -65 -47 -90 -47 -5 0 -21 -5 -36 -10 -26 -10 -26 -11
-8 -31 14 -15 26 -19 47 -15 27 5 27 5 13 -16 -11 -16 -13 -25 -4 -35 15 -18
31 -16 62 8 20 16 30 19 39 10 6 -6 22 -11 35 -11 26 0 26 -1 6 106 -5 28 -1
34 44 67 46 33 54 35 108 31 33 -3 96 1 141 9 45 7 80 10 77 6 -2 -4 -22 -10
-43 -14 -22 -3 -47 -15 -57 -26 -16 -18 -16 -19 14 -25 27 -6 31 -10 26 -30
-8 -33 25 -32 56 1 21 22 25 23 39 10 25 -22 45 -4 36 34 -8 39 16 81 46 81
20 0 79 -38 79 -51 0 -4 -17 -13 -37 -19 -21 -6 -44 -13 -50 -15 -19 -6 -5
-32 20 -39 17 -5 19 -8 8 -15 -26 -17 -1 -34 42 -28 28 4 44 1 55 -9 13 -13
17 -13 33 2 28 25 24 76 -12 151 -17 35 -29 65 -27 66 98 50 104 52 173 52 57
-1 83 -6 127 -28 115 -56 160 -192 97 -294 -28 -44 -68 -63 -226 -106 -154
-42 -222 -74 -257 -120 -24 -31 -35 -85 -20 -99 3 -4 29 18 57 47 59 59 113
84 249 111 114 23 228 59 269 87 69 46 119 193 98 287 -23 103 -99 191 -217
253 -137 72 -281 93 -439 62 -136 -27 -273 -36 -374 -25 -110 11 -242 54 -288
93 -72 60 -184 107 -257 107 -18 0 -36 5 -39 10 -3 6 -33 10 -66 10 -54 0 -64
-3 -91 -31z m150 -5 c13 -9 21 -22 18 -30 -3 -8 -1 -14 4 -14 6 0 10 -7 10
-15 0 -8 -4 -15 -9 -15 -5 0 -7 -9 -4 -20 8 -30 -47 -80 -89 -80 -28 0 -91 29
-65 30 5 0 1 7 -7 16 -23 22 -20 86 5 118 17 21 29 26 68 26 26 0 56 -7 69
-16z m-205 -47 c22 -45 14 -81 -25 -110 -29 -22 -101 -25 -124 -6 -8 6 -14 8
-14 4 0 -4 -7 -2 -15 5 -34 28 -7 107 47 134 18 9 51 15 73 14 35 -3 42 -7 58
-41z m368 13 c11 0 69 -60 69 -72 0 -4 -10 3 -23 15 -13 12 -22 25 -20 30 2 4
-3 8 -11 8 -9 1 -20 3 -26 4 -5 1 -14 3 -20 4 -5 0 -10 6 -10 12 0 6 7 8 16 5
9 -3 20 -6 25 -6z m-81 -4 c0 -2 -7 -7 -16 -10 -8 -3 -12 -2 -9 4 6 10 25 14
25 6z m171 -69 c-10 -9 -11 -8 -5 6 3 10 9 15 12 12 3 -3 0 -11 -7 -18z m59
-28 c0 -6 -4 -7 -10 -4 -5 3 -10 11 -10 16 0 6 5 7 10 4 6 -3 10 -11 10 -16z"/>
<path d="M500 1715 c-17 -20 -5 -45 20 -45 11 0 23 7 26 15 6 15 -11 45 -26
45 -4 0 -13 -7 -20 -15z"/>
<path d="M360 1715 c0 -33 28 -45 46 -20 16 22 2 45 -27 45 -14 0 -19 -7 -19
-25z"/>
<path d="M633 583 c-21 -4 -22 -9 -25 -146 -2 -78 -2 -143 -2 -145 1 -2 19 0
39 4 30 5 43 16 66 52 l29 46 0 -53 0 -53 38 7 c44 8 56 22 119 137 27 50 51
84 56 79 5 -5 0 -25 -11 -47 -17 -33 -62 -165 -62 -181 0 -10 66 10 77 24 6 8
15 32 18 54 4 21 11 39 16 39 5 0 25 -25 46 -56 32 -49 40 -55 62 -49 43 11
44 20 7 67 l-34 46 24 11 c31 14 59 71 50 105 -10 41 -54 57 -149 54 l-82 -3
-51 -78 -50 -77 4 86 5 87 -24 -6 c-13 -4 -30 -7 -36 -7 -7 0 -13 -11 -13 -25
0 -19 -64 -135 -75 -135 -1 0 1 38 3 85 5 90 6 88 -45 78z m453 -75 c9 -14
-31 -48 -58 -48 -15 0 -18 4 -13 18 4 9 8 23 8 30 0 15 53 16 63 0z"/>
<path d="M1502 583 c-17 -3 -22 -11 -21 -31 1 -15 -13 -58 -30 -97 -19 -42
-30 -58 -27 -40 5 30 9 90 7 113 -2 23 -64 52 -114 52 -59 0 -98 -19 -134 -67
-24 -32 -28 -45 -28 -106 0 -65 2 -70 33 -98 60 -53 157 -35 207 38 29 44 31
41 10 -17 -8 -24 -13 -45 -10 -48 2 -3 19 -1 36 4 27 8 35 18 51 64 27 79 35
80 43 5 l7 -67 36 7 c21 4 37 8 37 8 4 16 57 177 59 177 1 0 0 -29 -2 -65 -4
-63 -3 -66 31 -100 33 -33 38 -35 105 -35 46 0 74 4 79 13 10 15 41 125 37
130 -2 2 -19 1 -38 -1 -29 -3 -36 -9 -41 -33 -12 -54 -84 -64 -107 -14 -34 75
43 159 110 119 27 -15 31 -15 60 0 18 9 32 20 32 25 0 19 -52 53 -88 58 -55 7
-85 -2 -127 -38 -39 -34 -42 -32 -20 11 l16 30 -31 0 c-27 0 -33 -7 -64 -67
l-33 -67 -8 34 c-16 80 -26 110 -38 109 -7 -1 -22 -4 -35 -6z m-173 -83 c26
-13 34 -64 17 -105 -23 -55 -79 -72 -116 -35 -36 36 -19 108 31 136 29 16 45
17 68 4z"/>
<path d="M2023 582 c-13 -8 -86 -242 -79 -250 3 -2 23 -1 45 3 l41 7 25 81
c13 45 28 101 34 125 l9 42 -32 0 c-17 0 -37 -4 -43 -8z"/>
<path d="M1944 293 c-30 -6 -52 -83 -24 -83 58 0 78 12 88 51 10 38 9 39 -17
38 -14 -1 -36 -4 -47 -6z"/>
</g>
</svg>
